<svg width="20" height="20" viewBox="0 0 10 10" fill="none" xmlns="http://www.w3.org/2000/svg">
    <path
        d="M4.15149 7.03741L7.45164 3.73726L6.79629 3.08191L4.15149 5.72671L2.81738 4.39261L2.16203 5.04796L4.15149 7.03741ZM1.53009 9.28432C1.27263 9.28432 1.05215 9.19258 0.868652 9.00908C0.685154 8.82558 0.593561 8.60526 0.593873 8.34811V1.79461C0.593873 1.53715 0.685622 1.31668 0.86912 1.13318C1.05262 0.94968 1.27294 0.858087 1.53009 0.858399H8.08358C8.34104 0.858399 8.56152 0.950148 8.74502 1.13365C8.92852 1.31714 9.02011 1.53747 9.0198 1.79461V8.34811C9.0198 8.60557 8.92805 8.82605 8.74455 9.00955C8.56105 9.19304 8.34073 9.28464 8.08358 9.28432H1.53009Z"
        fill="#FE3C72"
    />
</svg>
